<?xml version="1.0" encoding="UTF-8"?>
<svg xmlns="http://www.w3.org/2000/svg" xmlns:xlink="http://www.w3.org/1999/xlink"
     width="2115.95704" height="403.045" viewBox="0 0 2115.95704 403.045">
<defs>
<path d="M37.9,-113.1 L36,-113.1 C33.9,-113.1 33.8,-113.2 33.8,-113.6 C33.8,-113.9 33.9,-114.5 34.2,-115.6 L39.1,-133.8 L37.3,-133.8 L37.3,-133.7 C35.9,-132.7 31.8,-131.5 28.7,-131.5 L28.5,-131.5 L27.9,-129.4 L31.2,-129.4 C32.3,-129.4 32.3,-129.1 32.3,-128.8 C32.3,-128.6 32.3,-128.3 32.1,-127.7 L28.9,-115.7 C28.6,-114.7 28.5,-114.2 28.5,-114.1 C28.3,-113.7 28.3,-113.5 28.1,-113.4 C27.9,-113.2 27.1,-113.1 25.9,-113.1 L24,-113.1 L23.7,-110.8 L37.6,-110.8 L37.9,-113.1 M64,-0.2 C64,-15.2 53.3,-25.5 38.7,-25.5 C37.7,-31.5 36.7,-37.4 35.9,-42.9 C46.4,-54 53.8,-66.6 53.8,-82.5 C53.8,-91.6 51,-98.9 49.3,-102.5 C47.6,-106.2 45.6,-109.1 43.9,-110.4 C44.4,-110.4 44.9,-110.3 45.4,-110.3 C50.8,-110.3 55.4,-114 55.4,-119.6 C55.4,-123.5 52.4,-125.6 48.7,-125.6 C47.4,-125.6 46.3,-125.4 44.9,-124.9 L45.8,-128.3 C48.2,-127.8 48.2,-127.8 49.6,-127.8 C52.3,-127.8 54,-128.3 55.4,-129.5 C56.5,-130.5 57.3,-132.1 57.3,-133.2 C57.3,-133.5 57.1,-133.7 56.9,-133.7 C56.8,-133.7 56.7,-133.7 56.5,-133.6 C55.1,-133 53.8,-132.8 52.1,-132.8 C50.1,-132.8 47.8,-133.1 45.2,-133.7 L45,-133.8 L42,-123.5 C41.1,-123.1 40.7,-122.5 40.7,-121.8 C40.7,-121 41.3,-120.4 42,-120.4 C43.1,-120.4 43.8,-121.1 44,-122.3 C45.4,-122.9 45.9,-123 46.6,-123 C48.5,-123 49.6,-121.6 49.6,-119.2 C49.6,-115.4 47.4,-112.5 44.7,-112.5 C43.4,-112.5 42.4,-113 42.4,-113.4 C42.4,-113.5 42.4,-113.6 42.6,-113.7 C43.9,-114.1 44.6,-115.1 44.6,-116.4 C44.6,-118 43.5,-119.1 41.8,-119.1 C39.9,-119.1 38.6,-117.7 38.6,-115.6 C38.6,-113.5 39.7,-111.9 41.7,-111.1 C40.4,-110.6 37.8,-109.2 35.1,-106 C28.7,-98.4 26.9,-85.7 26.9,-77.3 C26.9,-71.9 27.4,-67 29.1,-55.8 C29,-55.7 23.8,-50.4 21.7,-48.7 C12.6,-40.2 0,-28.1 0,-8.1 C0,10.7 16.3,25.4 34.9,25.4 C37.8,25.4 40.5,25.1 42.9,24.6 C44.7,34.2 45.9,41.3 45.9,46.6 C45.9,57 40.5,62.5 30.4,62.5 C28,62.5 25.9,62 25.7,61.9 C25.6,61.9 25.4,61.7 25.4,61.6 C25.4,61.4 25.6,61.4 25.9,61.3 C30.6,60.5 35.3,56.5 35.3,50.1 C35.3,44.8 31.2,39 23.7,39 C16.7,39 12.3,44.8 12.3,51.4 C12.3,58 17.3,66.7 30.8,66.7 C35.5,66.7 39.6,65.5 43.2,63.3 C48.6,59.5 50,52.9 50,46.6 C50,42.7 49.4,38.1 48.4,32.5 C48.1,30.5 47.6,27.4 46.9,23.6 C56.7,20.3 64,10.2 64,-0.2 M33.2,-82.1 C34.2,-86.2 38.7,-96.7 43.9,-96.7 C45.4,-96.7 47.9,-91.8 47.9,-84.9 C47.9,-74.5 40.1,-66.7 33.2,-59.8 C32.6,-63.9 32.1,-67.8 32.1,-71.9 C32.1,-75.7 32.5,-79.1 33.2,-82.1 M36.2,21.2 C21.9,21.2 9.7,11.3 9.7,-3.9 C9.7,-16 18.3,-26.9 27.1,-34.6 C28.8,-36 30.4,-37.5 31.9,-38.9 C32.8,-33.5 33.5,-28.9 34.2,-24.8 C25.1,-22.1 18.9,-12.4 18.9,-3.1 C18.9,4 24.4,13.6 32.4,13.6 C33.2,13.6 34.1,13.2 34.1,12.2 C34.1,11.4 33.2,10.8 31.9,10 C28,7.6 25.8,5 25.8,0.2 C25.8,-6 30.4,-10.8 36.2,-12.3 L42,20.6 C40,21 38.1,21.2 36.2,21.2 M46.2,19.4 C44.1,7.5 41.4,-8.4 40.7,-12.9 C50.8,-12.9 55.1,-5.8 56,-1.1 C56.1,-0.2 56.2,0.9 56.2,2.1 C56.2,9.3 53.3,16.5 46.2,19.4" fill="black" transform="translate(0 0) scale(.08)" id="d0" />
<path d="M12.3,51.3 C12.3,57.9 17.3,66.6 30.8,66.6 C35.5,66.6 39.6,65.4 43.2,63.2 C48.6,59.4 50,52.8 50,46.5 C50,42.6 49.4,38.1 48.4,32.4 C48.1,30.4 47.5,27.4 46.9,23.5 C56.7,20.3 64,10.1 64,-0.2 C64,-15.3 53.3,-25.5 38.7,-25.5 C37.7,-31.5 36.7,-37.4 35.9,-43 C46.4,-54.1 53.7,-66.6 53.7,-82.5 C53.7,-91.6 50.9,-99 49.3,-102.6 C46.9,-107.7 44,-111.2 42.2,-111.2 C41.5,-111.2 38.4,-110 35.1,-106.1 C28.7,-98.5 26.9,-85.7 26.9,-77.3 C26.9,-71.9 27.4,-67 29.1,-55.8 C29,-55.7 23.8,-50.4 21.7,-48.7 C12.6,-40.3 0,-28.1 0,-8.1 C0,10.6 16.3,25.3 34.9,25.3 C37.8,25.3 40.5,25 42.8,24.6 C44.7,34.2 45.9,41.2 45.9,46.5 C45.9,56.9 40.5,62.4 30.4,62.4 C28,62.4 25.9,61.9 25.7,61.9 C25.6,61.8 25.4,61.7 25.4,61.6 C25.4,61.4 25.6,61.3 25.9,61.3 C30.6,60.5 35.3,56.5 35.3,50.1 C35.3,44.7 31.2,39 23.7,39 C16.7,39 12.3,44.7 12.3,51.3 M33.2,-82.2 C34.1,-86.2 38.7,-96.7 43.9,-96.7 C45.4,-96.7 47.8,-91.9 47.8,-84.9 C47.8,-74.5 40.1,-66.7 33.2,-59.9 C32.6,-63.9 32.1,-67.8 32.1,-72 C32.1,-75.7 32.4,-79.1 33.2,-82.2 M42,20.6 C40,21 38.1,21.2 36.2,21.2 C21.9,21.2 9.7,11.2 9.7,-3.9 C9.7,-16.1 18.3,-27 27.1,-34.6 C28.8,-36.1 30.4,-37.5 31.9,-39 C32.8,-33.6 33.5,-28.9 34.2,-24.8 C25.1,-22.1 18.9,-12.5 18.9,-3.1 C18.9,3.9 24.4,13.5 32.4,13.5 C33.2,13.5 34.1,13.1 34.1,12.2 C34.1,11.3 33.1,10.8 31.9,10 C28,7.6 25.8,5 25.8,0.1 C25.8,-6 30.4,-10.9 36.2,-12.3 L42,20.6 M56.2,2.1 C56.2,9.2 53.3,16.5 46.2,19.4 C44.1,7.4 41.4,-8.5 40.7,-12.9 C49.7,-12.9 56.2,-6.8 56.2,2.1" fill="black" transform="translate(0 0) scale(.08)" id="d1" />
<path d="M25.4,-25.1 C17.8,-25.1 11.7,-20.7 11.6,-20.7 C5.7,-16.4 1.9,-9.8 1.9,-2.5 C1.9,4.8 6.1,10.2 13.5,10.2 C19.9,10.2 24.9,5.9 24.9,-0.7 C24.9,-6.4 19.9,-11.1 14.3,-11.1 C13.1,-11.1 12,-10.9 11.1,-10.6 C10.1,-10.2 8.4,-9.2 7.6,-8.5 C8.3,-12.9 11.3,-17.3 15.2,-19.4 C17.7,-20.8 20.9,-21.4 24.4,-21.4 C34.6,-21.4 39.6,-13.2 39.6,3.6 C39.6,16.6 31.3,35.3 21.5,44.1 C11.1,53.6 1.3,58.1 1.2,58.1 C1.2,58.1 0,58.8 0,60 C0,60.2 0.1,60.3 0.1,60.5 C0.4,61.5 1.3,61.7 2,61.7 L2.3,61.6 C2.5,61.6 13.9,56.9 23,49.8 C37,39.7 52.8,21.9 52.8,3.5 C52.8,-13.9 43.4,-25.1 25.4,-25.1 M56.8,-12.4 C56.8,-9.6 59,-7.4 61.6,-7.4 C64.2,-7.4 66.4,-9.6 66.4,-12.4 C66.4,-15.2 64.2,-17.5 61.6,-17.5 C59,-17.5 56.8,-15.2 56.8,-12.4 M56.8,12.3 C56.8,15.1 59,17.4 61.6,17.4 C64.2,17.4 66.4,15.1 66.4,12.3 C66.4,9.5 64.2,7.2 61.6,7.2 C59,7.2 56.8,9.5 56.8,12.3" fill="black" transform="translate(0 0) scale(.08)" id="d2" />
<path d="M25.3,-25.1 C17.7,-25.1 11.7,-20.7 11.6,-20.7 C5.7,-16.4 1.9,-9.8 1.9,-2.5 C1.9,5 6.2,10.2 13.7,10.2 C20,10.2 24.9,5.8 24.9,-0.7 C24.9,-6.5 19.9,-11.1 14.2,-11.1 C12.9,-11.1 11.9,-10.9 11,-10.6 C10,-10.2 8.4,-9.2 7.6,-8.5 C8.3,-12.9 11.3,-17.3 15.2,-19.4 C17.7,-20.8 20.9,-21.4 24.4,-21.4 C34.6,-21.4 39.6,-13.2 39.6,3.6 C39.6,16.6 31.3,35.3 21.5,44.1 C11.1,53.6 1.3,58.1 1.2,58.1 L1.1,58.1 C1.1,58.1 0,58.8 0,60 C0,60.1 0.1,60.3 0.1,60.5 C0.4,61.5 1.2,61.7 1.9,61.7 L2.3,61.6 C2.5,61.6 13.9,56.8 23,49.7 C32.4,42.9 40,35.5 45.9,25.5 C50.3,18 52.8,10.2 52.8,3.5 C52.8,-14 43.3,-25.1 25.3,-25.1 M56.7,-12.4 C56.7,-9.6 58.9,-7.4 61.5,-7.4 C64.1,-7.4 66.3,-9.6 66.3,-12.4 C66.3,-15.2 64.1,-17.5 61.5,-17.5 C58.9,-17.5 56.7,-15.2 56.7,-12.4 M56.7,12.3 C56.7,15.1 58.9,17.4 61.5,17.4 C64.1,17.4 66.3,15.1 66.3,12.3 C66.3,9.5 64.1,7.2 61.5,7.2 C58.9,7.2 56.7,9.5 56.7,12.3 M25.9,71 C25.9,70.7 26,70.2 26.3,69.1 L31.2,50.9 L29.4,50.9 L29.4,51 C28,52 23.9,53.1 20.8,53.2 L20.6,53.2 L20,55.3 L23.3,55.3 C24.4,55.3 24.4,55.6 24.4,55.9 C24.4,56.2 24.3,56.7 24.2,57 L21,69 C20.7,70 20.6,70.4 20.6,70.5 L20.5,70.6 C20.4,71.1 20.3,71.1 20.2,71.2 L20.2,71.3 C20,71.6 19.2,71.6 18,71.6 L16.1,71.6 L15.8,73.9 L29.7,73.9 L30,71.6 L28.1,71.6 C26,71.6 25.9,71.4 25.9,71 M49,51 C48.9,51 48.8,51 48.7,51 L48.6,51.1 C47.2,51.7 45.9,51.9 44.2,51.9 C42.2,51.9 39.9,51.6 37.3,51 L37.1,50.9 L34.1,61.1 C33.2,61.5 32.8,62.1 32.8,62.9 C32.8,63.7 33.3,64.3 34.1,64.3 C35.1,64.3 35.9,63.6 36.1,62.4 C37.6,61.8 38,61.6 38.7,61.6 C40.6,61.6 41.7,63 41.7,65.5 C41.7,69.3 39.5,72.2 36.8,72.2 C35.5,72.2 34.5,71.6 34.5,71.1 C34.5,71.1 34.6,71 34.7,71 C36,70.6 36.7,69.6 36.7,68.3 C36.7,66.7 35.6,65.6 33.9,65.6 C32,65.6 30.7,67 30.7,69.1 C30.7,72.3 33.4,74.4 37.5,74.4 C42.9,74.4 47.4,70.6 47.4,65.1 C47.4,61.1 44.6,59.1 40.8,59.1 C39.5,59.1 38.4,59.3 37,59.8 L37.9,56.4 C40.2,56.9 40.3,56.9 41.7,56.9 C44.3,56.9 46.1,56.3 47.5,55.1 C48.5,54.2 49.4,52.6 49.4,51.5 C49.4,51.1 49.2,51 49,51" fill="black" transform="translate(0 0) scale(.08)" id="d3" />
<path d="M18.7,-13.6 C4.9,-13.6 0,-6.6 0,-0.1 C0,6.4 4.9,13.4 18.7,13.4 C32.5,13.4 37.3,6.4 37.3,-0.1 C37.3,-6.6 32.5,-13.6 18.7,-13.6" fill="black" transform="translate(0 0) scale(.08)" id="d4" />
<g id="d5"></g>
<path d="M18.7,-13.6 C4.9,-13.6 0,-6.6 0,-0.1 C0,6.4 4.9,13.4 18.7,13.4 C32.5,13.4 37.3,6.4 37.3,-0.1 C37.3,-6.6 32.5,-13.6 18.7,-13.6 M19.5,10.2 C16.7,10.2 14.8,9.4 13.5,6.9 C12.2,4.4 10.4,-2.1 10.3,-4.7 C10.1,-7.4 11.1,-9 13.5,-9.8 C14.7,-10.2 16.3,-10.4 17.9,-10.4 C20.6,-10.4 22.4,-9.8 23.8,-7.1 C25.2,-4.5 27.1,2 27.1,4.5 C27.1,9.4 23.5,10.2 19.5,10.2" fill="black" transform="translate(0 0) scale(.08)" id="d6" />
<path d="M12,-15.5 C7,-15.5 4.1,-12.4 3.6,-11.8 L4,-43.9 C4,-44.7 3.4,-45.3 2.6,-45.3 L1.4,-45.3 C0.6,-45.3 0,-44.7 0,-43.9 L0.5,16.2 C0.5,17 1.1,17.6 1.9,17.6 C2.1,17.6 2.5,17.5 2.7,17.4 C11.3,13.1 20.3,4.9 20.3,-5.4 C20.3,-10.6 17.9,-15.5 12,-15.5 M3.3,12.7 L3.6,-6.8 C3.8,-7.7 5.3,-10.6 9.3,-10.6 C12.9,-10.6 13.2,-7.2 13.2,-5.1 C13.2,3.8 9.9,7.5 3.3,12.7" fill="black" transform="translate(0 0) scale(.08)" id="d7" />
<path d="M16.6,-18.3 C16.4,-18.5 16.1,-18.6 15.7,-18.6 L15.5,-18.5 C15.5,-18.5 15.4,-18.5 15.4,-18.5 L2.8,-15 L2.8,-32.5 L0,-32.5 L0,17 C0,18.1 0.9,18.3 1.8,18.3 L14.4,14.8 L14.4,32.3 L17.1,32.3 C17.1,15.7 17.1,-0.1 17.1,-17.2 C17.1,-17.6 16.9,-18.1 16.6,-18.3 M2.8,9.7 L2.8,-6.7 L14.4,-10 L14.4,6.5 L2.8,9.7" fill="black" transform="translate(0 0) scale(.08)" id="d8" />
</defs>
<g>
<text x="1057.97852" y="28.3" font-size="50" font-family="FreeSerif" text-anchor="middle" dominant-baseline="hanging" font-weight="bold">Polyband Ranges</text>
<g transform="translate(28.3,115.8)scale(2.83)">
<g transform="translate(0,38.5)">
<g>
<path d="M0,24 L727.688,24" stroke="black" stroke-width="0.22" />
<path d="M0,22 L727.688,22" stroke="black" stroke-width="0.22" />
<path d="M0,20 L727.688,20" stroke="black" stroke-width="0.22" />
<path d="M0,18 L727.688,18" stroke="black" stroke-width="0.22" />
<path d="M0,16 L727.688,16" stroke="black" stroke-width="0.22" />
<path d="M0,14 L727.688,14" stroke="#666666" stroke-width="0.11" />
<path d="M0,12 L727.688,12" stroke="#666666" stroke-width="0.11" />
<path d="M0,10 L727.688,10" stroke="black" stroke-width="0.22" />
<path d="M0,8 L727.688,8" stroke="black" stroke-width="0.22" />
<path d="M0,6 L727.688,6" stroke="black" stroke-width="0.22" />
<path d="M0,4 L727.688,4" stroke="black" stroke-width="0.22" />
<path d="M0,2 L727.688,2" stroke="black" stroke-width="0.22" />
<path d="M0,0 L727.688,0" stroke="#666666" stroke-width="0.11" />
<path d="M0,-2 L727.688,-2" stroke="black" stroke-width="0.22" />
<path d="M0,-4 L727.688,-4" stroke="black" stroke-width="0.22" />
<path d="M0,-6 L727.688,-6" stroke="black" stroke-width="0.22" />
<path d="M0,-8 L727.688,-8" stroke="black" stroke-width="0.22" />
<path d="M0,-10 L727.688,-10" stroke="black" stroke-width="0.22" />
<path d="M0,-12 L727.688,-12" stroke="#666666" stroke-width="0.11" />
<path d="M0,-14 L727.688,-14" stroke="#666666" stroke-width="0.11" />
<path d="M0,-16 L727.688,-16" stroke="black" stroke-width="0.22" />
<path d="M0,-18 L727.688,-18" stroke="black" stroke-width="0.22" />
<path d="M0,-20 L727.688,-20" stroke="black" stroke-width="0.22" />
<path d="M0,-22 L727.688,-22" stroke="black" stroke-width="0.22" />
<path d="M0,-24 L727.688,-24" stroke="black" stroke-width="0.22" />
<path d="M0,-26 L727.688,-26" stroke="#666666" stroke-width="0.11" />
<path d="M0,-28 L727.688,-28" stroke="#666666" stroke-width="0.11" />
</g>
<g>
<path d="M727.148,-24 L727.148,24" stroke-width="1.08" stroke="black" />
<path d="M725.888,-24 L725.888,24" stroke-width="0.36" stroke="black" />
</g>
<g>
<use xlink:href="#d0" x="0.588" y="-18" />
<use xlink:href="#d1" x="0.588" y="-4" />
<use xlink:href="#d2" x="0.588" y="4" />
<use xlink:href="#d3" x="0.588" y="18" />
</g>
<g transform="translate(5.888 0)">
<g>
<g>
<use xlink:href="#d4" x="4.0" y="2" />
<use xlink:href="#d5" x="4.0" y="2" />
<use xlink:href="#d4" x="52.519999999999996" y="-12" />
<use xlink:href="#d5" x="52.519999999999996" y="-12" />
</g>
<g>
<path d="M7.411606612768016,1.4455380754585279 L52.08839338723198,-11.445538075458527" stroke-width="0.2" stroke="black" />
</g>
<text x="4.0" y="-32.5" font-size="4.5" text-anchor="start" font-family="FreeSerif" font-weight="bold">Mezzosoprano</text>
<g>
<text x="4.800000000000001" y="27.4" font-size="3.2" font-weight="bold" font-family="FreeSerif" dominant-baseline="hanging" text-anchor="start">A3</text>
<text x="14.4" y="27.4" font-size="3.2" font-weight="bold" font-family="FreeSerif" dominant-baseline="hanging" text-anchor="start">A5</text>
<text x="24.0" y="27.4" font-size="3.2" font-family="FreeSerif" dominant-baseline="hanging" text-anchor="start" font-style=""></text>
</g>
</g>
</g>
<path d="M65.888,-24 L65.888,24" stroke-width="0.36" stroke="black" />
<g transform="translate(65.888 0)">
<g>
<g>
<use xlink:href="#d6" x="4.0" y="0" />
<use xlink:href="#d5" x="4.0" y="0" />
<use xlink:href="#d4" x="15.718095238095238" y="-5" />
<use xlink:href="#d5" x="15.718095238095238" y="-5" />
<use xlink:href="#d4" x="30.731428571428573" y="-12" />
<use xlink:href="#d5" x="30.731428571428573" y="-12" />
<use xlink:href="#d4" x="45.7447619047619" y="-19" />
<use xlink:href="#d5" x="45.7447619047619" y="-19" />
<use xlink:href="#d6" x="52.519999999999996" y="-21" />
<use xlink:href="#d5" x="52.519999999999996" y="-21" />
</g>
<g>
<path d="M7.3295405058440535,-0.7849144713655138 L15.368554732251182,-4.215085528634486" stroke-width="0.2" stroke="black" />
<path d="M19.02074930009497,-5.845153980950141 L30.40877450942884,-11.15484601904986" stroke-width="0.2" stroke="black" />
<path d="M34.034082633428305,-12.845153980950142 L45.42210784276217,-18.15484601904986" stroke-width="0.2" stroke="black" />
<path d="M49.15293381113407,-19.566230110118294 L52.09182809362783,-20.433769889881706" stroke-width="0.2" stroke="black" />
</g>
<text x="4.0" y="-32.5" font-size="4.5" text-anchor="start" font-family="FreeSerif" font-weight="bold">Flute</text>
<g>
<text x="4.800000000000001" y="27.4" font-size="3.2" font-weight="bold" font-family="FreeSerif" dominant-baseline="hanging" text-anchor="start">A6</text>
<text x="14.4" y="27.4" font-size="3.2" font-weight="bold" font-family="FreeSerif" dominant-baseline="hanging" text-anchor="start">C7</text>
<text x="24.0" y="27.4" font-size="3.2" font-family="FreeSerif" dominant-baseline="hanging" text-anchor="start" font-style="italic">Piercing</text>
<text x="4.800000000000001" y="32.519999999999996" font-size="3.2" font-weight="bold" font-family="FreeSerif" dominant-baseline="hanging" text-anchor="start">A5</text>
<text x="14.4" y="32.519999999999996" font-size="3.2" font-weight="bold" font-family="FreeSerif" dominant-baseline="hanging" text-anchor="start">A6</text>
<text x="24.0" y="32.519999999999996" font-size="3.2" font-family="FreeSerif" dominant-baseline="hanging" text-anchor="start" font-style="">Brilliant</text>
<text x="4.800000000000001" y="37.64" font-size="3.2" font-weight="bold" font-family="FreeSerif" dominant-baseline="hanging" text-anchor="start">A4</text>
<text x="14.4" y="37.64" font-size="3.2" font-weight="bold" font-family="FreeSerif" dominant-baseline="hanging" text-anchor="start">A5</text>
<text x="24.0" y="37.64" font-size="3.2" font-family="FreeSerif" dominant-baseline="hanging" text-anchor="start" font-style="">Sweet, Clear</text>
<text x="4.800000000000001" y="42.760000000000005" font-size="3.2" font-weight="bold" font-family="FreeSerif" dominant-baseline="hanging" text-anchor="start">C4</text>
<text x="14.4" y="42.760000000000005" font-size="3.2" font-weight="bold" font-family="FreeSerif" dominant-baseline="hanging" text-anchor="start">A4</text>
<text x="24.0" y="42.760000000000005" font-size="3.2" font-family="FreeSerif" dominant-baseline="hanging" text-anchor="start" font-style="italic">Warm, Soft</text>
</g>
</g>
</g>
<path d="M125.888,-24 L125.888,24" stroke-width="0.36" stroke="black" />
<g transform="translate(125.888 0)">
<g>
<g>
<use xlink:href="#d4" x="4.0" y="5" />
<use xlink:href="#d5" x="4.0" y="5" />
<use xlink:href="#d4" x="17.36521739130435" y="-2" />
<use xlink:href="#d5" x="17.36521739130435" y="-2" />
<use xlink:href="#d4" x="25.081739130434784" y="-5" />
<use xlink:href="#d5" x="25.081739130434784" y="-5" />
<use xlink:href="#d4" x="41.97913043478261" y="-13" />
<use xlink:href="#d7" x="39.859130434782614" y="-13" />
<use xlink:href="#d6" x="52.52000000000001" y="-18" />
<use xlink:href="#d5" x="52.52000000000001" y="-18" />
</g>
<g>
<path d="M7.261708192164688,4.072072156998976 L17.08350919913966,-1.072072156998976" stroke-width="0.2" stroke="black" />
<path d="M20.71929768436109,-2.724710053081561 L24.707658837378037,-4.2752899469184396" stroke-width="0.2" stroke="black" />
<path d="M28.379381459502394,-5.855820781567622 L41.661488105715,-12.144179218432377" stroke-width="0.2" stroke="black" />
<path d="M45.27614447830261,-13.857146572367594 L52.20298595648001,-17.142853427632406" stroke-width="0.2" stroke="black" />
</g>
<text x="4.0" y="-32.5" font-size="4.5" text-anchor="start" font-family="FreeSerif" font-weight="bold">Clarinet</text>
<g>
<text x="4.800000000000001" y="27.4" font-size="3.2" font-weight="bold" font-family="FreeSerif" dominant-baseline="hanging" text-anchor="start">B♭5</text>
<text x="14.4" y="27.4" font-size="3.2" font-weight="bold" font-family="FreeSerif" dominant-baseline="hanging" text-anchor="start">G6</text>
<text x="24.0" y="27.4" font-size="3.2" font-family="FreeSerif" dominant-baseline="hanging" text-anchor="start" font-style="italic">Piercing</text>
<text x="4.800000000000001" y="32.519999999999996" font-size="3.2" font-weight="bold" font-family="FreeSerif" dominant-baseline="hanging" text-anchor="start">A4</text>
<text x="14.4" y="32.519999999999996" font-size="3.2" font-weight="bold" font-family="FreeSerif" dominant-baseline="hanging" text-anchor="start">B♭5</text>
<text x="24.0" y="32.519999999999996" font-size="3.2" font-family="FreeSerif" dominant-baseline="hanging" text-anchor="start" font-style="">Clear</text>
<text x="4.800000000000001" y="37.64" font-size="3.2" font-weight="bold" font-family="FreeSerif" dominant-baseline="hanging" text-anchor="start">E4</text>
<text x="14.4" y="37.64" font-size="3.2" font-weight="bold" font-family="FreeSerif" dominant-baseline="hanging" text-anchor="start">A4</text>
<text x="24.0" y="37.64" font-size="3.2" font-family="FreeSerif" dominant-baseline="hanging" text-anchor="start" font-style="">Pale, Hollow</text>
<text x="4.800000000000001" y="42.760000000000005" font-size="3.2" font-weight="bold" font-family="FreeSerif" dominant-baseline="hanging" text-anchor="start">E3</text>
<text x="14.4" y="42.760000000000005" font-size="3.2" font-weight="bold" font-family="FreeSerif" dominant-baseline="hanging" text-anchor="start">E4</text>
<text x="24.0" y="42.760000000000005" font-size="3.2" font-family="FreeSerif" dominant-baseline="hanging" text-anchor="start" font-style="">Dark, Warm</text>
</g>
</g>
</g>
<path d="M185.888,-24 L185.888,24" stroke-width="0.36" stroke="black" />
<g transform="translate(185.888 0)">
<g>
<g>
<use xlink:href="#d6" x="6.12" y="6" />
<use xlink:href="#d7" x="4.0" y="6" />
<use xlink:href="#d4" x="11.516521739130434" y="4" />
<use xlink:href="#d5" x="11.516521739130434" y="4" />
<use xlink:href="#d4" x="20.746086956521737" y="-2" />
<use xlink:href="#d5" x="20.746086956521737" y="-2" />
<use xlink:href="#d4" x="25.184347826086956" y="-3" />
<use xlink:href="#d5" x="25.184347826086956" y="-3" />
<use xlink:href="#d4" x="34.41391304347826" y="-9" />
<use xlink:href="#d5" x="34.41391304347826" y="-9" />
<use xlink:href="#d4" x="38.85217391304347" y="-10" />
<use xlink:href="#d5" x="38.85217391304347" y="-10" />
<use xlink:href="#d4" x="44.24869565217391" y="-12" />
<use xlink:href="#d5" x="44.24869565217391" y="-12" />
<use xlink:href="#d6" x="52.51999999999999" y="-17" />
<use xlink:href="#d5" x="52.51999999999999" y="-17" />
</g>
<g>
<path d="M9.485351673789449,5.3049776265362985 L11.131170065340987,4.6950223734637015" stroke-width="0.2" stroke="black" />
<path d="M14.683343998951496,2.9099233472050754 L20.559264696700673,-0.9099233472050752" stroke-width="0.2" stroke="black" />
<path d="M28.351170085908016,-4.090076652794924 L34.2270907836572,-7.909923347205076" stroke-width="0.2" stroke="black" />
<path d="M42.21752558683292,-10.6950223734637 L43.863343978384464,-11.3049776265363" stroke-width="0.2" stroke="black" />
<path d="M47.45027448463534,-13.034648684467328 L52.298421167538564,-15.965351315532672" stroke-width="0.2" stroke="black" />
</g>
<text x="4.0" y="-32.5" font-size="4.5" text-anchor="start" font-family="FreeSerif" font-weight="bold">Alto Saxophone</text>
<g>
<text x="4.800000000000001" y="27.4" font-size="3.2" font-weight="bold" font-family="FreeSerif" dominant-baseline="hanging" text-anchor="start">A5</text>
<text x="14.4" y="27.4" font-size="3.2" font-weight="bold" font-family="FreeSerif" dominant-baseline="hanging" text-anchor="start">F6</text>
<text x="24.0" y="27.4" font-size="3.2" font-family="FreeSerif" dominant-baseline="hanging" text-anchor="start" font-style="italic">Possible</text>
<text x="4.800000000000001" y="32.519999999999996" font-size="3.2" font-weight="bold" font-family="FreeSerif" dominant-baseline="hanging" text-anchor="start">F5</text>
<text x="14.4" y="32.519999999999996" font-size="3.2" font-weight="bold" font-family="FreeSerif" dominant-baseline="hanging" text-anchor="start">A5</text>
<text x="24.0" y="32.519999999999996" font-size="3.2" font-family="FreeSerif" dominant-baseline="hanging" text-anchor="start" font-style="">Hard to Control</text>
<text x="4.800000000000001" y="37.64" font-size="3.2" font-weight="bold" font-family="FreeSerif" dominant-baseline="hanging" text-anchor="start">F4</text>
<text x="14.4" y="37.64" font-size="3.2" font-weight="bold" font-family="FreeSerif" dominant-baseline="hanging" text-anchor="start">E5</text>
<text x="24.0" y="37.64" font-size="3.2" font-family="FreeSerif" dominant-baseline="hanging" text-anchor="start" font-style="">Bright Controlable</text>
<text x="4.800000000000001" y="42.760000000000005" font-size="3.2" font-weight="bold" font-family="FreeSerif" dominant-baseline="hanging" text-anchor="start">F3</text>
<text x="14.4" y="42.760000000000005" font-size="3.2" font-weight="bold" font-family="FreeSerif" dominant-baseline="hanging" text-anchor="start">E4</text>
<text x="24.0" y="42.760000000000005" font-size="3.2" font-family="FreeSerif" dominant-baseline="hanging" text-anchor="start" font-style="">Warm Controlable</text>
<text x="4.800000000000001" y="47.88" font-size="3.2" font-weight="bold" font-family="FreeSerif" dominant-baseline="hanging" text-anchor="start">D♭3</text>
<text x="14.4" y="47.88" font-size="3.2" font-weight="bold" font-family="FreeSerif" dominant-baseline="hanging" text-anchor="start">F3</text>
<text x="24.0" y="47.88" font-size="3.2" font-family="FreeSerif" dominant-baseline="hanging" text-anchor="start" font-style="italic">Hard to Control</text>
</g>
</g>
</g>
<path d="M245.888,-24 L245.888,24" stroke-width="0.36" stroke="black" />
<g transform="translate(245.888 0)">
<g>
<g>
<use xlink:href="#d6" x="6.12" y="9" />
<use xlink:href="#d7" x="4.0" y="9" />
<use xlink:href="#d4" x="11.516521739130434" y="7" />
<use xlink:href="#d5" x="11.516521739130434" y="7" />
<use xlink:href="#d4" x="20.746086956521737" y="1" />
<use xlink:href="#d5" x="20.746086956521737" y="1" />
<use xlink:href="#d4" x="25.184347826086956" y="0" />
<use xlink:href="#d5" x="25.184347826086956" y="0" />
<use xlink:href="#d4" x="34.41391304347826" y="-6" />
<use xlink:href="#d5" x="34.41391304347826" y="-6" />
<use xlink:href="#d4" x="38.85217391304347" y="-7" />
<use xlink:href="#d5" x="38.85217391304347" y="-7" />
<use xlink:href="#d4" x="44.24869565217391" y="-9" />
<use xlink:href="#d5" x="44.24869565217391" y="-9" />
<use xlink:href="#d6" x="52.51999999999999" y="-14" />
<use xlink:href="#d5" x="52.51999999999999" y="-14" />
</g>
<g>
<path d="M9.485351673789449,8.3049776265363 L11.131170065340987,7.6950223734637015" stroke-width="0.2" stroke="black" />
<path d="M14.683343998951496,5.909923347205075 L20.559264696700673,2.0900766527949246" stroke-width="0.2" stroke="black" />
<path d="M28.351170085908016,-1.0900766527949242 L34.2270907836572,-4.909923347205076" stroke-width="0.2" stroke="black" />
<path d="M42.21752558683292,-7.6950223734637015 L43.863343978384464,-8.3049776265363" stroke-width="0.2" stroke="black" />
<path d="M47.45027448463534,-10.034648684467328 L52.298421167538564,-12.965351315532672" stroke-width="0.2" stroke="black" />
</g>
<text x="4.0" y="-32.5" font-size="4.5" text-anchor="start" font-family="FreeSerif" font-weight="bold">Tenor Saxophone</text>
<g>
<text x="4.800000000000001" y="27.4" font-size="3.2" font-weight="bold" font-family="FreeSerif" dominant-baseline="hanging" text-anchor="start">E5</text>
<text x="14.4" y="27.4" font-size="3.2" font-weight="bold" font-family="FreeSerif" dominant-baseline="hanging" text-anchor="start">C6</text>
<text x="24.0" y="27.4" font-size="3.2" font-family="FreeSerif" dominant-baseline="hanging" text-anchor="start" font-style="italic">Possible</text>
<text x="4.800000000000001" y="32.519999999999996" font-size="3.2" font-weight="bold" font-family="FreeSerif" dominant-baseline="hanging" text-anchor="start">C5</text>
<text x="14.4" y="32.519999999999996" font-size="3.2" font-weight="bold" font-family="FreeSerif" dominant-baseline="hanging" text-anchor="start">E5</text>
<text x="24.0" y="32.519999999999996" font-size="3.2" font-family="FreeSerif" dominant-baseline="hanging" text-anchor="start" font-style="">Hard to Control</text>
<text x="4.800000000000001" y="37.64" font-size="3.2" font-weight="bold" font-family="FreeSerif" dominant-baseline="hanging" text-anchor="start">C4</text>
<text x="14.4" y="37.64" font-size="3.2" font-weight="bold" font-family="FreeSerif" dominant-baseline="hanging" text-anchor="start">B4</text>
<text x="24.0" y="37.64" font-size="3.2" font-family="FreeSerif" dominant-baseline="hanging" text-anchor="start" font-style="">Bright Controlable</text>
<text x="4.800000000000001" y="42.760000000000005" font-size="3.2" font-weight="bold" font-family="FreeSerif" dominant-baseline="hanging" text-anchor="start">C3</text>
<text x="14.4" y="42.760000000000005" font-size="3.2" font-weight="bold" font-family="FreeSerif" dominant-baseline="hanging" text-anchor="start">B3</text>
<text x="24.0" y="42.760000000000005" font-size="3.2" font-family="FreeSerif" dominant-baseline="hanging" text-anchor="start" font-style="">Warm Controlable</text>
<text x="4.800000000000001" y="47.88" font-size="3.2" font-weight="bold" font-family="FreeSerif" dominant-baseline="hanging" text-anchor="start">A♭2</text>
<text x="14.4" y="47.88" font-size="3.2" font-weight="bold" font-family="FreeSerif" dominant-baseline="hanging" text-anchor="start">C3</text>
<text x="24.0" y="47.88" font-size="3.2" font-family="FreeSerif" dominant-baseline="hanging" text-anchor="start" font-style="italic">Hard to Control</text>
</g>
</g>
</g>
<path d="M305.88800000000003,-24 L305.88800000000003,24" stroke-width="0.36" stroke="black" />
<g transform="translate(305.888 0)">
<g>
<g>
<use xlink:href="#d4" x="6.12" y="13" />
<use xlink:href="#d7" x="4.0" y="13" />
<use xlink:href="#d4" x="12.2" y="11" />
<use xlink:href="#d5" x="12.2" y="11" />
<use xlink:href="#d4" x="23.48" y="5" />
<use xlink:href="#d5" x="23.48" y="5" />
<use xlink:href="#d4" x="28.26" y="4" />
<use xlink:href="#d5" x="28.26" y="4" />
<use xlink:href="#d4" x="39.540000000000006" y="-2" />
<use xlink:href="#d5" x="39.540000000000006" y="-2" />
<use xlink:href="#d4" x="44.32" y="-3" />
<use xlink:href="#d5" x="44.32" y="-3" />
<use xlink:href="#d6" x="52.519999999999996" y="-5" />
<use xlink:href="#d7" x="50.4" y="-5" />
</g>
<g>
<path d="M9.509851579892755,12.375048822403699 L11.790148420107245,11.624951177596301" stroke-width="0.2" stroke="black" />
<path d="M15.455744778398559,10.06077405404332 L23.20425522160144,5.9392259459566805" stroke-width="0.2" stroke="black" />
<path d="M31.51574477839856,3.06077405404332 L39.264255221601445,-1.06077405404332" stroke-width="0.2" stroke="black" />
<path d="M47.75304067756626,-3.473912360382015 L52.06695932243374,-4.526087639617986" stroke-width="0.2" stroke="black" />
</g>
<text x="4.0" y="-32.5" font-size="4.5" text-anchor="start" font-family="FreeSerif" font-weight="bold">Baritone Saxophone</text>
<g>
<text x="4.800000000000001" y="27.4" font-size="3.2" font-weight="bold" font-family="FreeSerif" dominant-baseline="hanging" text-anchor="start">F4</text>
<text x="14.4" y="27.4" font-size="3.2" font-weight="bold" font-family="FreeSerif" dominant-baseline="hanging" text-anchor="start">A♭4</text>
<text x="24.0" y="27.4" font-size="3.2" font-family="FreeSerif" dominant-baseline="hanging" text-anchor="start" font-style="italic">Hard to Control</text>
<text x="4.800000000000001" y="32.519999999999996" font-size="3.2" font-weight="bold" font-family="FreeSerif" dominant-baseline="hanging" text-anchor="start">F3</text>
<text x="14.4" y="32.519999999999996" font-size="3.2" font-weight="bold" font-family="FreeSerif" dominant-baseline="hanging" text-anchor="start">E4</text>
<text x="24.0" y="32.519999999999996" font-size="3.2" font-family="FreeSerif" dominant-baseline="hanging" text-anchor="start" font-style="">Bright Controlable</text>
<text x="4.800000000000001" y="37.64" font-size="3.2" font-weight="bold" font-family="FreeSerif" dominant-baseline="hanging" text-anchor="start">F2</text>
<text x="14.4" y="37.64" font-size="3.2" font-weight="bold" font-family="FreeSerif" dominant-baseline="hanging" text-anchor="start">E3</text>
<text x="24.0" y="37.64" font-size="3.2" font-family="FreeSerif" dominant-baseline="hanging" text-anchor="start" font-style="">Warm Controlable</text>
<text x="4.800000000000001" y="42.760000000000005" font-size="3.2" font-weight="bold" font-family="FreeSerif" dominant-baseline="hanging" text-anchor="start">D♭2</text>
<text x="14.4" y="42.760000000000005" font-size="3.2" font-weight="bold" font-family="FreeSerif" dominant-baseline="hanging" text-anchor="start">F2</text>
<text x="24.0" y="42.760000000000005" font-size="3.2" font-family="FreeSerif" dominant-baseline="hanging" text-anchor="start" font-style="">For Slow Lines</text>
</g>
</g>
</g>
<path d="M365.888,-24 L365.888,24" stroke-width="0.36" stroke="black" />
<g transform="translate(365.888 0)">
<g>
<g>
<use xlink:href="#d6" x="4.0" y="5" />
<use xlink:href="#d5" x="4.0" y="5" />
<use xlink:href="#d4" x="15.505454545454548" y="1" />
<use xlink:href="#d7" x="13.385454545454547" y="1" />
<use xlink:href="#d4" x="36.70181818181818" y="-11" />
<use xlink:href="#d5" x="36.70181818181818" y="-11" />
<use xlink:href="#d4" x="44.61090909090909" y="-14" />
<use xlink:href="#d5" x="44.61090909090909" y="-14" />
<use xlink:href="#d6" x="52.519999999999996" y="-17" />
<use xlink:href="#d5" x="52.519999999999996" y="-17" />
</g>
<g>
<path d="M7.379090229851073,4.34323664575342 L15.106364315603473,1.6567633542465803" stroke-width="0.2" stroke="black" />
<path d="M18.73589579878896,0.014675564247116135 L36.451376928483775,-10.014675564247117" stroke-width="0.2" stroke="black" />
<path d="M40.06181323445375,-11.709308468241078 L44.230914038273525,-13.290691531758922" stroke-width="0.2" stroke="black" />
<path d="M47.97090414354466,-14.709308468241078 L52.14000494736443,-16.290691531758924" stroke-width="0.2" stroke="black" />
</g>
<text x="4.0" y="-32.5" font-size="4.5" text-anchor="start" font-family="FreeSerif" font-weight="bold">Trumpet</text>
<g>
<text x="4.800000000000001" y="27.4" font-size="3.2" font-weight="bold" font-family="FreeSerif" dominant-baseline="hanging" text-anchor="start">C6</text>
<text x="14.4" y="27.4" font-size="3.2" font-weight="bold" font-family="FreeSerif" dominant-baseline="hanging" text-anchor="start">F6</text>
<text x="24.0" y="27.4" font-size="3.2" font-family="FreeSerif" dominant-baseline="hanging" text-anchor="start" font-style="italic">Lead</text>
<text x="4.800000000000001" y="32.519999999999996" font-size="3.2" font-weight="bold" font-family="FreeSerif" dominant-baseline="hanging" text-anchor="start">G5</text>
<text x="14.4" y="32.519999999999996" font-size="3.2" font-weight="bold" font-family="FreeSerif" dominant-baseline="hanging" text-anchor="start">C6</text>
<text x="24.0" y="32.519999999999996" font-size="3.2" font-family="FreeSerif" dominant-baseline="hanging" text-anchor="start" font-style="">Bright</text>
<text x="4.800000000000001" y="37.64" font-size="3.2" font-weight="bold" font-family="FreeSerif" dominant-baseline="hanging" text-anchor="start">B♭3</text>
<text x="14.4" y="37.64" font-size="3.2" font-weight="bold" font-family="FreeSerif" dominant-baseline="hanging" text-anchor="start">G5</text>
<text x="24.0" y="37.64" font-size="3.2" font-family="FreeSerif" dominant-baseline="hanging" text-anchor="start" font-style="">Comfortable</text>
<text x="4.800000000000001" y="42.760000000000005" font-size="3.2" font-weight="bold" font-family="FreeSerif" dominant-baseline="hanging" text-anchor="start">E3</text>
<text x="14.4" y="42.760000000000005" font-size="3.2" font-weight="bold" font-family="FreeSerif" dominant-baseline="hanging" text-anchor="start">B♭3</text>
<text x="24.0" y="42.760000000000005" font-size="3.2" font-family="FreeSerif" dominant-baseline="hanging" text-anchor="start" font-style="italic">Muddy</text>
</g>
</g>
</g>
<path d="M425.888,-24 L425.888,24" stroke-width="0.36" stroke="black" />
<g transform="translate(425.888 0)">
<g>
<g>
<use xlink:href="#d4" x="4.0" y="12" />
<use xlink:href="#d5" x="4.0" y="12" />
<use xlink:href="#d4" x="11.48842105263158" y="10" />
<use xlink:href="#d5" x="11.48842105263158" y="10" />
<use xlink:href="#d4" x="43.02736842105263" y="-4" />
<use xlink:href="#d5" x="43.02736842105263" y="-4" />
<use xlink:href="#d6" x="52.519999999999996" y="-7" />
<use xlink:href="#d5" x="52.519999999999996" y="-7" />
</g>
<g>
<path d="M7.422271377968041,11.483930894273366 L11.046149674663539,10.516069105726634" stroke-width="0.2" stroke="black" />
<path d="M14.806416310316123,9.188560946291823 L42.68937316336809,-3.1885609462918225" stroke-width="0.2" stroke="black" />
<path d="M46.42439947148554,-4.602687790389642 L52.102968949567085,-6.397312209610358" stroke-width="0.2" stroke="black" />
</g>
<text x="4.0" y="-32.5" font-size="4.5" text-anchor="start" font-family="FreeSerif" font-weight="bold">Trombone</text>
<g>
<text x="4.800000000000001" y="27.4" font-size="3.2" font-weight="bold" font-family="FreeSerif" dominant-baseline="hanging" text-anchor="start">G4</text>
<text x="14.4" y="27.4" font-size="3.2" font-weight="bold" font-family="FreeSerif" dominant-baseline="hanging" text-anchor="start">C5</text>
<text x="24.0" y="27.4" font-size="3.2" font-family="FreeSerif" dominant-baseline="hanging" text-anchor="start" font-style="italic">Lead</text>
<text x="4.800000000000001" y="32.519999999999996" font-size="3.2" font-weight="bold" font-family="FreeSerif" dominant-baseline="hanging" text-anchor="start">G2</text>
<text x="14.4" y="32.519999999999996" font-size="3.2" font-weight="bold" font-family="FreeSerif" dominant-baseline="hanging" text-anchor="start">G4</text>
<text x="24.0" y="32.519999999999996" font-size="3.2" font-family="FreeSerif" dominant-baseline="hanging" text-anchor="start" font-style="">Controlable</text>
<text x="4.800000000000001" y="37.64" font-size="3.2" font-weight="bold" font-family="FreeSerif" dominant-baseline="hanging" text-anchor="start">E2</text>
<text x="14.4" y="37.64" font-size="3.2" font-weight="bold" font-family="FreeSerif" dominant-baseline="hanging" text-anchor="start">G2</text>
<text x="24.0" y="37.64" font-size="3.2" font-family="FreeSerif" dominant-baseline="hanging" text-anchor="start" font-style="">Thick</text>
</g>
</g>
</g>
<path d="M485.888,-24 L485.888,24" stroke-width="0.36" stroke="black" />
<g transform="translate(485.888 0)">
<g>
<g>
<use xlink:href="#d6" x="4.0" y="25" />
<use xlink:href="#d5" x="4.0" y="25" />
<use xlink:href="#d4" x="18.224137931034488" y="15" />
<use xlink:href="#d7" x="16.104137931034487" y="15" />
<use xlink:href="#d4" x="26.411379310344834" y="12" />
<use xlink:href="#d7" x="24.291379310344833" y="12" />
<use xlink:href="#d4" x="31.761379310344832" y="12" />
<use xlink:href="#d8" x="29.89137931034483" y="12" />
<use xlink:href="#d4" x="45.590344827586215" y="0" />
<use xlink:href="#d5" x="45.590344827586215" y="0" />
<use xlink:href="#d6" x="52.52" y="-4" />
<use xlink:href="#d5" x="52.52" y="-4" />
</g>
<g>
<path d="M7.126131212948587,23.84975017756342 L18.0780067180859,16.15024982243658" stroke-width="0.2" stroke="black" />
<path d="M21.592037937563184,14.311892766002625 L26.023479303816135,12.688107233997375" stroke-width="0.2" stroke="black" />
<path d="M29.901379310344833,12.0 L31.25137931034483,12.0" stroke-width="0.2" stroke="black" />
<path d="M34.76195185627253,10.689209939200978 L45.569772281658516,1.3107900607990217" stroke-width="0.2" stroke="black" />
<path d="M48.81248636014793,-0.999842843238252 L52.27785846743829,-3.000157156761748" stroke-width="0.2" stroke="black" />
</g>
<text x="4.0" y="-32.5" font-size="4.5" text-anchor="start" font-family="FreeSerif" font-weight="bold">Basstrombone</text>
<g>
<text x="4.800000000000001" y="27.4" font-size="3.2" font-weight="bold" font-family="FreeSerif" dominant-baseline="hanging" text-anchor="start">C4</text>
<text x="14.4" y="27.4" font-size="3.2" font-weight="bold" font-family="FreeSerif" dominant-baseline="hanging" text-anchor="start">G4</text>
<text x="24.0" y="27.4" font-size="3.2" font-family="FreeSerif" dominant-baseline="hanging" text-anchor="start" font-style="italic">Weak</text>
<text x="4.800000000000001" y="32.519999999999996" font-size="3.2" font-weight="bold" font-family="FreeSerif" dominant-baseline="hanging" text-anchor="start">E2</text>
<text x="14.4" y="32.519999999999996" font-size="3.2" font-weight="bold" font-family="FreeSerif" dominant-baseline="hanging" text-anchor="start">C4</text>
<text x="24.0" y="32.519999999999996" font-size="3.2" font-family="FreeSerif" dominant-baseline="hanging" text-anchor="start" font-style="">Clear Controlable</text>
<text x="4.800000000000001" y="37.64" font-size="3.2" font-weight="bold" font-family="FreeSerif" dominant-baseline="hanging" text-anchor="start">B♭1</text>
<text x="14.4" y="37.64" font-size="3.2" font-weight="bold" font-family="FreeSerif" dominant-baseline="hanging" text-anchor="start">E♭2</text>
<text x="24.0" y="37.64" font-size="3.2" font-family="FreeSerif" dominant-baseline="hanging" text-anchor="start" font-style="">Trigger Notes</text>
<text x="4.800000000000001" y="42.760000000000005" font-size="3.2" font-weight="bold" font-family="FreeSerif" dominant-baseline="hanging" text-anchor="start">F0</text>
<text x="14.4" y="42.760000000000005" font-size="3.2" font-weight="bold" font-family="FreeSerif" dominant-baseline="hanging" text-anchor="start">B♭1</text>
<text x="24.0" y="42.760000000000005" font-size="3.2" font-family="FreeSerif" dominant-baseline="hanging" text-anchor="start" font-style="italic">Pedal Tones</text>
</g>
</g>
</g>
<path d="M545.8879999999999,-24 L545.8879999999999,24" stroke-width="0.36" stroke="black" />
<g transform="translate(545.888 0)">
<g>
<g>
<use xlink:href="#d6" x="4.0" y="23" />
<use xlink:href="#d5" x="4.0" y="23" />
<use xlink:href="#d4" x="11.169411764705883" y="16" />
<use xlink:href="#d5" x="11.169411764705883" y="16" />
<use xlink:href="#d4" x="18.87764705882353" y="12" />
<use xlink:href="#d7" x="16.75764705882353" y="12" />
<use xlink:href="#d4" x="28.167058823529416" y="5" />
<use xlink:href="#d7" x="26.047058823529415" y="5" />
<use xlink:href="#d4" x="40.607058823529414" y="-12" />
<use xlink:href="#d5" x="40.607058823529414" y="-12" />
<use xlink:href="#d6" x="52.519999999999996" y="-28" />
<use xlink:href="#d5" x="52.519999999999996" y="-28" />
</g>
<g>
<path d="M6.921019848720037,21.602794863819458 L11.228391915985846,17.397205136180542" stroke-width="0.2" stroke="black" />
<path d="M14.434625482454772,15.078796300313458 L18.592433341074642,12.921203699686542" stroke-width="0.2" stroke="black" />
<path d="M21.964924182741196,10.796378053785446 L28.059781699611747,6.203621946214553" stroke-width="0.2" stroke="black" />
<path d="M30.838139138912656,3.385983491839621 L40.915978508146175,-10.385983491839621" stroke-width="0.2" stroke="black" />
<path d="M43.2914651884699,-13.604179988464406 L52.815593635059514,-26.395820011535594" stroke-width="0.2" stroke="black" />
</g>
<text x="4.0" y="-32.5" font-size="4.5" text-anchor="start" font-family="FreeSerif" font-weight="bold">Piano</text>
<g>
<text x="4.800000000000001" y="27.4" font-size="3.2" font-weight="bold" font-family="FreeSerif" dominant-baseline="hanging" text-anchor="start">A5</text>
<text x="14.4" y="27.4" font-size="3.2" font-weight="bold" font-family="FreeSerif" dominant-baseline="hanging" text-anchor="start">C8</text>
<text x="24.0" y="27.4" font-size="3.2" font-family="FreeSerif" dominant-baseline="hanging" text-anchor="start" font-style="italic">Rarely Used</text>
<text x="4.800000000000001" y="32.519999999999996" font-size="3.2" font-weight="bold" font-family="FreeSerif" dominant-baseline="hanging" text-anchor="start">E♭3</text>
<text x="14.4" y="32.519999999999996" font-size="3.2" font-weight="bold" font-family="FreeSerif" dominant-baseline="hanging" text-anchor="start">A5</text>
<text x="24.0" y="32.519999999999996" font-size="3.2" font-family="FreeSerif" dominant-baseline="hanging" text-anchor="start" font-style="">Chords</text>
<text x="4.800000000000001" y="37.64" font-size="3.2" font-weight="bold" font-family="FreeSerif" dominant-baseline="hanging" text-anchor="start">E♭2</text>
<text x="14.4" y="37.64" font-size="3.2" font-weight="bold" font-family="FreeSerif" dominant-baseline="hanging" text-anchor="start">E♭3</text>
<text x="24.0" y="37.64" font-size="3.2" font-family="FreeSerif" dominant-baseline="hanging" text-anchor="start" font-style="">Sevenths and Sixth</text>
<text x="4.800000000000001" y="42.760000000000005" font-size="3.2" font-weight="bold" font-family="FreeSerif" dominant-baseline="hanging" text-anchor="start">A1</text>
<text x="14.4" y="42.760000000000005" font-size="3.2" font-weight="bold" font-family="FreeSerif" dominant-baseline="hanging" text-anchor="start">E♭2</text>
<text x="24.0" y="42.760000000000005" font-size="3.2" font-family="FreeSerif" dominant-baseline="hanging" text-anchor="start" font-style="">Octaves and Fifth</text>
<text x="4.800000000000001" y="47.88" font-size="3.2" font-weight="bold" font-family="FreeSerif" dominant-baseline="hanging" text-anchor="start">A0</text>
<text x="14.4" y="47.88" font-size="3.2" font-weight="bold" font-family="FreeSerif" dominant-baseline="hanging" text-anchor="start">A1</text>
<text x="24.0" y="47.88" font-size="3.2" font-family="FreeSerif" dominant-baseline="hanging" text-anchor="start" font-style="italic">Rarely Used</text>
</g>
</g>
</g>
<path d="M605.888,-24 L605.888,24" stroke-width="0.36" stroke="black" />
<g transform="translate(605.888 0)">
<g>
<g>
<use xlink:href="#d4" x="4.0" y="12" />
<use xlink:href="#d5" x="4.0" y="12" />
<use xlink:href="#d4" x="4.0" y="-1" />
<use xlink:href="#d5" x="4.0" y="-1" />
<use xlink:href="#d4" x="13.704" y="9" />
<use xlink:href="#d5" x="13.704" y="9" />
<use xlink:href="#d4" x="13.704" y="-4" />
<use xlink:href="#d5" x="13.704" y="-4" />
<use xlink:href="#d4" x="23.408" y="6" />
<use xlink:href="#d5" x="23.408" y="6" />
<use xlink:href="#d4" x="23.408" y="-7" />
<use xlink:href="#d5" x="23.408" y="-7" />
<use xlink:href="#d4" x="33.112" y="3" />
<use xlink:href="#d5" x="33.112" y="3" />
<use xlink:href="#d4" x="33.112" y="-10" />
<use xlink:href="#d5" x="33.112" y="-10" />
<use xlink:href="#d4" x="42.816" y="1" />
<use xlink:href="#d5" x="42.816" y="1" />
<use xlink:href="#d4" x="42.816" y="-12" />
<use xlink:href="#d5" x="42.816" y="-12" />
<use xlink:href="#d4" x="52.52" y="-2" />
<use xlink:href="#d5" x="52.52" y="-2" />
<use xlink:href="#d4" x="52.52" y="-15" />
<use xlink:href="#d5" x="52.52" y="-15" />
</g>
<text x="4.0" y="-32.5" font-size="4.5" text-anchor="start" font-family="FreeSerif" font-weight="bold">Guitar</text>
<g>
<g>
<path d="M5.49,10.0 L5.49,1.0" stroke-width="0.2" stroke="black" />
</g>
<g>
<path d="M15.194,7.0 L15.194,-2.0" stroke-width="0.2" stroke="black" />
</g>
<g>
<path d="M24.898,4.0 L24.898,-5.0" stroke-width="0.2" stroke="black" />
</g>
<g>
<path d="M34.602000000000004,1.0 L34.602000000000004,-8.0" stroke-width="0.2" stroke="black" />
</g>
<g>
<path d="M44.306000000000004,-1.0 L44.306000000000004,-10.0" stroke-width="0.2" stroke="black" />
</g>
<g>
<path d="M54.010000000000005,-4.0 L54.010000000000005,-13.0" stroke-width="0.2" stroke="black" />
</g>
</g>
<g>
<text x="4.800000000000001" y="27.4" font-size="3.2" font-weight="bold" font-family="FreeSerif" dominant-baseline="hanging" text-anchor="start">1</text>
<text x="14.4" y="27.4" font-size="3.2" font-weight="bold" font-family="FreeSerif" dominant-baseline="hanging" text-anchor="start">m14</text>
<text x="24.0" y="27.4" font-size="3.2" font-family="FreeSerif" dominant-baseline="hanging" text-anchor="start" font-style=""></text>
</g>
</g>
</g>
<path d="M665.888,-24 L665.888,24" stroke-width="0.36" stroke="black" />
<g transform="translate(665.888 0)">
<g>
<g>
<use xlink:href="#d4" x="4.0" y="19" />
<use xlink:href="#d5" x="4.0" y="19" />
<use xlink:href="#d4" x="4.0" y="12" />
<use xlink:href="#d5" x="4.0" y="12" />
<use xlink:href="#d4" x="4.0" y="5" />
<use xlink:href="#d5" x="4.0" y="5" />
<use xlink:href="#d4" x="4.0" y="-2" />
<use xlink:href="#d5" x="4.0" y="-2" />
<use xlink:href="#d4" x="20.173333333333332" y="16" />
<use xlink:href="#d5" x="20.173333333333332" y="16" />
<use xlink:href="#d4" x="20.173333333333332" y="9" />
<use xlink:href="#d5" x="20.173333333333332" y="9" />
<use xlink:href="#d4" x="20.173333333333332" y="2" />
<use xlink:href="#d5" x="20.173333333333332" y="2" />
<use xlink:href="#d4" x="20.173333333333332" y="-5" />
<use xlink:href="#d5" x="20.173333333333332" y="-5" />
<use xlink:href="#d4" x="36.346666666666664" y="13" />
<use xlink:href="#d5" x="36.346666666666664" y="13" />
<use xlink:href="#d4" x="36.346666666666664" y="6" />
<use xlink:href="#d5" x="36.346666666666664" y="6" />
<use xlink:href="#d4" x="36.346666666666664" y="-1" />
<use xlink:href="#d5" x="36.346666666666664" y="-1" />
<use xlink:href="#d4" x="36.346666666666664" y="-8" />
<use xlink:href="#d5" x="36.346666666666664" y="-8" />
<use xlink:href="#d4" x="52.519999999999996" y="10" />
<use xlink:href="#d5" x="52.519999999999996" y="10" />
<use xlink:href="#d4" x="52.519999999999996" y="3" />
<use xlink:href="#d5" x="52.519999999999996" y="3" />
<use xlink:href="#d4" x="52.519999999999996" y="-4" />
<use xlink:href="#d5" x="52.519999999999996" y="-4" />
<use xlink:href="#d4" x="52.519999999999996" y="-11" />
<use xlink:href="#d5" x="52.519999999999996" y="-11" />
</g>
<text x="4.0" y="-32.5" font-size="4.5" text-anchor="start" font-family="FreeSerif" font-weight="bold">Bass</text>
<g>
<g>
<path d="M5.49,17.0 L5.49,14.0" stroke-width="0.2" stroke="black" />
<path d="M5.49,10.0 L5.49,7.0" stroke-width="0.2" stroke="black" />
<path d="M5.49,3.0 L5.49,0.0" stroke-width="0.2" stroke="black" />
</g>
<g>
<path d="M21.66333333333333,14.0 L21.66333333333333,11.0" stroke-width="0.2" stroke="black" />
<path d="M21.66333333333333,7.0 L21.66333333333333,4.0" stroke-width="0.2" stroke="black" />
<path d="M21.66333333333333,0.0 L21.66333333333333,-3.0" stroke-width="0.2" stroke="black" />
</g>
<g>
<path d="M37.836666666666666,11.0 L37.836666666666666,8.0" stroke-width="0.2" stroke="black" />
<path d="M37.836666666666666,4.0 L37.836666666666666,1.0" stroke-width="0.2" stroke="black" />
<path d="M37.836666666666666,-3.0 L37.836666666666666,-6.0" stroke-width="0.2" stroke="black" />
</g>
<g>
<path d="M54.01,8.0 L54.01,5.0" stroke-width="0.2" stroke="black" />
<path d="M54.01,1.0 L54.01,-2.0" stroke-width="0.2" stroke="black" />
<path d="M54.01,-6.0 L54.01,-9.0" stroke-width="0.2" stroke="black" />
</g>
</g>
<g>
<text x="4.800000000000001" y="27.4" font-size="3.2" font-weight="bold" font-family="FreeSerif" dominant-baseline="hanging" text-anchor="start">15</text>
<text x="14.4" y="27.4" font-size="3.2" font-weight="bold" font-family="FreeSerif" dominant-baseline="hanging" text-anchor="start">22</text>
<text x="24.0" y="27.4" font-size="3.2" font-family="FreeSerif" dominant-baseline="hanging" text-anchor="start" font-style=""></text>
<text x="4.800000000000001" y="32.519999999999996" font-size="3.2" font-weight="bold" font-family="FreeSerif" dominant-baseline="hanging" text-anchor="start">8</text>
<text x="14.4" y="32.519999999999996" font-size="3.2" font-weight="bold" font-family="FreeSerif" dominant-baseline="hanging" text-anchor="start">15</text>
<text x="24.0" y="32.519999999999996" font-size="3.2" font-family="FreeSerif" dominant-baseline="hanging" text-anchor="start" font-style=""></text>
<text x="4.800000000000001" y="37.64" font-size="3.2" font-weight="bold" font-family="FreeSerif" dominant-baseline="hanging" text-anchor="start">1</text>
<text x="14.4" y="37.64" font-size="3.2" font-weight="bold" font-family="FreeSerif" dominant-baseline="hanging" text-anchor="start">8</text>
<text x="24.0" y="37.64" font-size="3.2" font-family="FreeSerif" dominant-baseline="hanging" text-anchor="start" font-style=""></text>
</g>
</g>
</g>
</g>
</g>
</g>
</svg>