<?xml version="1.0" encoding="UTF-8"?>
<svg xmlns="http://www.w3.org/2000/svg" xmlns:xlink="http://www.w3.org/1999/xlink"
     width="7016" height="1240.0" viewBox="0 0 7016 1240.0">
<defs>
</defs>
<rect x="0" y="0" width="7016" height="1240.0" fill="white" />
<text x="3508.0" y="100" font-size="70" font="Cochin" anchor="middle">Polyband Ranges</text>
<g>
<path d="M100,836.75 L6916,836.75" stroke="black" stroke-width="1.87" />
<path d="M100,819.75 L6916,819.75" stroke="black" stroke-width="1.87" />
<path d="M100,802.75 L6916,802.75" stroke="black" stroke-width="1.87" />
<path d="M100,785.75 L6916,785.75" stroke="black" stroke-width="1.87" />
<path d="M100,768.75 L6916,768.75" stroke="black" stroke-width="1.87" />
<path d="M100,751.75 L6916,751.75" stroke="#aaaaaa" stroke-width="0.935" />
<path d="M100,734.75 L6916,734.75" stroke="#aaaaaa" stroke-width="0.935" />
<path d="M100,717.75 L6916,717.75" stroke="black" stroke-width="1.87" />
<path d="M100,700.75 L6916,700.75" stroke="black" stroke-width="1.87" />
<path d="M100,683.75 L6916,683.75" stroke="black" stroke-width="1.87" />
<path d="M100,666.75 L6916,666.75" stroke="black" stroke-width="1.87" />
<path d="M100,649.75 L6916,649.75" stroke="black" stroke-width="1.87" />
<path d="M100,632.75 L6916,632.75" stroke="#aaaaaa" stroke-width="0.935" />
<path d="M100,615.75 L6916,615.75" stroke="black" stroke-width="1.87" />
<path d="M100,598.75 L6916,598.75" stroke="black" stroke-width="1.87" />
<path d="M100,581.75 L6916,581.75" stroke="black" stroke-width="1.87" />
<path d="M100,564.75 L6916,564.75" stroke="black" stroke-width="1.87" />
<path d="M100,547.75 L6916,547.75" stroke="black" stroke-width="1.87" />
<path d="M100,530.75 L6916,530.75" stroke="#aaaaaa" stroke-width="0.935" />
<path d="M100,513.75 L6916,513.75" stroke="#aaaaaa" stroke-width="0.935" />
<path d="M100,496.75 L6916,496.75" stroke="black" stroke-width="1.87" />
<path d="M100,479.75 L6916,479.75" stroke="black" stroke-width="1.87" />
<path d="M100,462.75 L6916,462.75" stroke="black" stroke-width="1.87" />
<path d="M100,445.75 L6916,445.75" stroke="black" stroke-width="1.87" />
<path d="M100,428.75 L6916,428.75" stroke="black" stroke-width="1.87" />
<path d="M100,411.75 L6916,411.75" stroke="#aaaaaa" stroke-width="0.935" />
<path d="M100,394.75 L6916,394.75" stroke="#aaaaaa" stroke-width="0.935" />
</g>
<g transform="translate(110.0 479.75) scale(8.5)">
<path d="M37.9,-113.1 L36,-113.1 C33.9,-113.1 33.8,-113.2 33.8,-113.6 C33.8,-113.9 33.9,-114.5 34.2,-115.6 L39.1,-133.8 L37.3,-133.8 L37.3,-133.7 C35.9,-132.7 31.8,-131.5 28.7,-131.5 L28.5,-131.5 L27.9,-129.4 L31.2,-129.4 C32.3,-129.4 32.3,-129.1 32.3,-128.8 C32.3,-128.6 32.3,-128.3 32.1,-127.7 L28.9,-115.7 C28.6,-114.7 28.5,-114.2 28.5,-114.1 C28.3,-113.7 28.3,-113.5 28.1,-113.4 C27.9,-113.2 27.1,-113.1 25.9,-113.1 L24,-113.1 L23.7,-110.8 L37.6,-110.8 L37.9,-113.1 M64,-0.2 C64,-15.2 53.3,-25.5 38.7,-25.5 C37.7,-31.5 36.7,-37.4 35.9,-42.9 C46.4,-54 53.8,-66.6 53.8,-82.5 C53.8,-91.6 51,-98.9 49.3,-102.5 C47.6,-106.2 45.6,-109.1 43.9,-110.4 C44.4,-110.4 44.9,-110.3 45.4,-110.3 C50.8,-110.3 55.4,-114 55.4,-119.6 C55.4,-123.5 52.4,-125.6 48.7,-125.6 C47.4,-125.6 46.3,-125.4 44.9,-124.9 L45.8,-128.3 C48.2,-127.8 48.2,-127.8 49.6,-127.8 C52.3,-127.8 54,-128.3 55.4,-129.5 C56.5,-130.5 57.3,-132.1 57.3,-133.2 C57.3,-133.5 57.1,-133.7 56.9,-133.7 C56.8,-133.7 56.7,-133.7 56.5,-133.6 C55.1,-133 53.8,-132.8 52.1,-132.8 C50.1,-132.8 47.8,-133.1 45.2,-133.7 L45,-133.8 L42,-123.5 C41.1,-123.1 40.7,-122.5 40.7,-121.8 C40.7,-121 41.3,-120.4 42,-120.4 C43.1,-120.4 43.8,-121.1 44,-122.3 C45.4,-122.9 45.9,-123 46.6,-123 C48.5,-123 49.6,-121.6 49.6,-119.2 C49.6,-115.4 47.4,-112.5 44.7,-112.5 C43.4,-112.5 42.4,-113 42.4,-113.4 C42.4,-113.5 42.4,-113.6 42.6,-113.7 C43.9,-114.1 44.6,-115.1 44.6,-116.4 C44.6,-118 43.5,-119.1 41.8,-119.1 C39.9,-119.1 38.6,-117.7 38.6,-115.6 C38.6,-113.5 39.7,-111.9 41.7,-111.1 C40.4,-110.6 37.8,-109.2 35.1,-106 C28.7,-98.4 26.9,-85.7 26.9,-77.3 C26.9,-71.9 27.4,-67 29.1,-55.8 C29,-55.7 23.8,-50.4 21.7,-48.7 C12.6,-40.2 0,-28.1 0,-8.1 C0,10.7 16.3,25.4 34.9,25.4 C37.8,25.4 40.5,25.1 42.9,24.6 C44.7,34.2 45.9,41.3 45.9,46.6 C45.9,57 40.5,62.5 30.4,62.5 C28,62.5 25.9,62 25.7,61.9 C25.6,61.9 25.4,61.7 25.4,61.6 C25.4,61.4 25.6,61.4 25.9,61.3 C30.6,60.5 35.3,56.5 35.3,50.1 C35.3,44.8 31.2,39 23.7,39 C16.7,39 12.3,44.8 12.3,51.4 C12.3,58 17.3,66.7 30.8,66.7 C35.5,66.7 39.6,65.5 43.2,63.3 C48.6,59.5 50,52.9 50,46.6 C50,42.7 49.4,38.1 48.4,32.5 C48.1,30.5 47.6,27.4 46.9,23.6 C56.7,20.3 64,10.2 64,-0.2 M33.2,-82.1 C34.2,-86.2 38.7,-96.7 43.9,-96.7 C45.4,-96.7 47.9,-91.8 47.9,-84.9 C47.9,-74.5 40.1,-66.7 33.2,-59.8 C32.6,-63.9 32.1,-67.8 32.1,-71.9 C32.1,-75.7 32.5,-79.1 33.2,-82.1 M36.2,21.2 C21.9,21.2 9.7,11.3 9.7,-3.9 C9.7,-16 18.3,-26.9 27.1,-34.6 C28.8,-36 30.4,-37.5 31.9,-38.9 C32.8,-33.5 33.5,-28.9 34.2,-24.8 C25.1,-22.1 18.9,-12.4 18.9,-3.1 C18.9,4 24.4,13.6 32.4,13.6 C33.2,13.6 34.1,13.2 34.1,12.2 C34.1,11.4 33.2,10.8 31.9,10 C28,7.6 25.8,5 25.8,0.2 C25.8,-6 30.4,-10.8 36.2,-12.3 L42,20.6 C40,21 38.1,21.2 36.2,21.2 M46.2,19.4 C44.1,7.5 41.4,-8.4 40.7,-12.9 C50.8,-12.9 55.1,-5.8 56,-1.1 C56.1,-0.2 56.2,0.9 56.2,2.1 C56.2,9.3 53.3,16.5 46.2,19.4" fill="black" transform="translate(0 0) scale(.08)" />
</g>
<g transform="translate(110.0 598.75) scale(8.5)">
<path d="M12.3,51.3 C12.3,57.9 17.3,66.6 30.8,66.6 C35.5,66.6 39.6,65.4 43.2,63.2 C48.6,59.4 50,52.8 50,46.5 C50,42.6 49.4,38.1 48.4,32.4 C48.1,30.4 47.5,27.4 46.9,23.5 C56.7,20.3 64,10.1 64,-0.2 C64,-15.3 53.3,-25.5 38.7,-25.5 C37.7,-31.5 36.7,-37.4 35.9,-43 C46.4,-54.1 53.7,-66.6 53.7,-82.5 C53.7,-91.6 50.9,-99 49.3,-102.6 C46.9,-107.7 44,-111.2 42.2,-111.2 C41.5,-111.2 38.4,-110 35.1,-106.1 C28.7,-98.5 26.9,-85.7 26.9,-77.3 C26.9,-71.9 27.4,-67 29.1,-55.8 C29,-55.7 23.8,-50.4 21.7,-48.7 C12.6,-40.3 0,-28.1 0,-8.1 C0,10.6 16.3,25.3 34.9,25.3 C37.8,25.3 40.5,25 42.8,24.6 C44.7,34.2 45.9,41.2 45.9,46.5 C45.9,56.9 40.5,62.4 30.4,62.4 C28,62.4 25.9,61.9 25.7,61.9 C25.6,61.8 25.4,61.7 25.4,61.6 C25.4,61.4 25.6,61.3 25.9,61.3 C30.6,60.5 35.3,56.5 35.3,50.1 C35.3,44.7 31.2,39 23.7,39 C16.7,39 12.3,44.7 12.3,51.3 M33.2,-82.2 C34.1,-86.2 38.7,-96.7 43.9,-96.7 C45.4,-96.7 47.8,-91.9 47.8,-84.9 C47.8,-74.5 40.1,-66.7 33.2,-59.9 C32.6,-63.9 32.1,-67.8 32.1,-72 C32.1,-75.7 32.4,-79.1 33.2,-82.2 M42,20.6 C40,21 38.1,21.2 36.2,21.2 C21.9,21.2 9.7,11.2 9.7,-3.9 C9.7,-16.1 18.3,-27 27.1,-34.6 C28.8,-36.1 30.4,-37.5 31.9,-39 C32.8,-33.6 33.5,-28.9 34.2,-24.8 C25.1,-22.1 18.9,-12.5 18.9,-3.1 C18.9,3.9 24.4,13.5 32.4,13.5 C33.2,13.5 34.1,13.1 34.1,12.2 C34.1,11.3 33.1,10.8 31.9,10 C28,7.6 25.8,5 25.8,0.1 C25.8,-6 30.4,-10.9 36.2,-12.3 L42,20.6 M56.2,2.1 C56.2,9.2 53.3,16.5 46.2,19.4 C44.1,7.4 41.4,-8.5 40.7,-12.9 C49.7,-12.9 56.2,-6.8 56.2,2.1" fill="black" transform="translate(0 0) scale(.08)" />
</g>
<g transform="translate(110.0 666.75) scale(8.5)">
<path d="M25.4,-25.1 C17.8,-25.1 11.7,-20.7 11.6,-20.7 C5.7,-16.4 1.9,-9.8 1.9,-2.5 C1.9,4.8 6.1,10.2 13.5,10.2 C19.9,10.2 24.9,5.9 24.9,-0.7 C24.9,-6.4 19.9,-11.1 14.3,-11.1 C13.1,-11.1 12,-10.9 11.1,-10.6 C10.1,-10.2 8.4,-9.2 7.6,-8.5 C8.3,-12.9 11.3,-17.3 15.2,-19.4 C17.7,-20.8 20.9,-21.4 24.4,-21.4 C34.6,-21.4 39.6,-13.2 39.6,3.6 C39.6,16.6 31.3,35.3 21.5,44.1 C11.1,53.6 1.3,58.1 1.2,58.1 C1.2,58.1 0,58.8 0,60 C0,60.2 0.1,60.3 0.1,60.5 C0.4,61.5 1.3,61.7 2,61.7 L2.3,61.6 C2.5,61.6 13.9,56.9 23,49.8 C37,39.7 52.8,21.9 52.8,3.5 C52.8,-13.9 43.4,-25.1 25.4,-25.1 M56.8,-12.4 C56.8,-9.6 59,-7.4 61.6,-7.4 C64.2,-7.4 66.4,-9.6 66.4,-12.4 C66.4,-15.2 64.2,-17.5 61.6,-17.5 C59,-17.5 56.8,-15.2 56.8,-12.4 M56.8,12.3 C56.8,15.1 59,17.4 61.6,17.4 C64.2,17.4 66.4,15.1 66.4,12.3 C66.4,9.5 64.2,7.2 61.6,7.2 C59,7.2 56.8,9.5 56.8,12.3" fill="black" transform="translate(0 0) scale(.08)" />
</g>
<g transform="translate(110.0 785.75) scale(8.5)">
<path d="M25.3,-25.1 C17.7,-25.1 11.7,-20.7 11.6,-20.7 C5.7,-16.4 1.9,-9.8 1.9,-2.5 C1.9,5 6.2,10.2 13.7,10.2 C20,10.2 24.9,5.8 24.9,-0.7 C24.9,-6.5 19.9,-11.1 14.2,-11.1 C12.9,-11.1 11.9,-10.9 11,-10.6 C10,-10.2 8.4,-9.2 7.6,-8.5 C8.3,-12.9 11.3,-17.3 15.2,-19.4 C17.7,-20.8 20.9,-21.4 24.4,-21.4 C34.6,-21.4 39.6,-13.2 39.6,3.6 C39.6,16.6 31.3,35.3 21.5,44.1 C11.1,53.6 1.3,58.1 1.2,58.1 L1.1,58.1 C1.1,58.1 0,58.8 0,60 C0,60.1 0.1,60.3 0.1,60.5 C0.4,61.5 1.2,61.7 1.9,61.7 L2.3,61.6 C2.5,61.6 13.9,56.8 23,49.7 C32.4,42.9 40,35.5 45.9,25.5 C50.3,18 52.8,10.2 52.8,3.5 C52.8,-14 43.3,-25.1 25.3,-25.1 M56.7,-12.4 C56.7,-9.6 58.9,-7.4 61.5,-7.4 C64.1,-7.4 66.3,-9.6 66.3,-12.4 C66.3,-15.2 64.1,-17.5 61.5,-17.5 C58.9,-17.5 56.7,-15.2 56.7,-12.4 M56.7,12.3 C56.7,15.1 58.9,17.4 61.5,17.4 C64.1,17.4 66.3,15.1 66.3,12.3 C66.3,9.5 64.1,7.2 61.5,7.2 C58.9,7.2 56.7,9.5 56.7,12.3 M25.9,71 C25.9,70.7 26,70.2 26.3,69.1 L31.2,50.9 L29.4,50.9 L29.4,51 C28,52 23.9,53.1 20.8,53.2 L20.6,53.2 L20,55.3 L23.3,55.3 C24.4,55.3 24.4,55.6 24.4,55.9 C24.4,56.2 24.3,56.7 24.2,57 L21,69 C20.7,70 20.6,70.4 20.6,70.5 L20.5,70.6 C20.4,71.1 20.3,71.1 20.2,71.2 L20.2,71.3 C20,71.6 19.2,71.6 18,71.6 L16.1,71.6 L15.8,73.9 L29.7,73.9 L30,71.6 L28.1,71.6 C26,71.6 25.9,71.4 25.9,71 M49,51 C48.9,51 48.8,51 48.7,51 L48.6,51.1 C47.2,51.7 45.9,51.9 44.2,51.9 C42.2,51.9 39.9,51.6 37.3,51 L37.1,50.9 L34.1,61.1 C33.2,61.5 32.8,62.1 32.8,62.9 C32.8,63.7 33.3,64.3 34.1,64.3 C35.1,64.3 35.9,63.6 36.1,62.4 C37.6,61.8 38,61.6 38.7,61.6 C40.6,61.6 41.7,63 41.7,65.5 C41.7,69.3 39.5,72.2 36.8,72.2 C35.5,72.2 34.5,71.6 34.5,71.1 C34.5,71.1 34.6,71 34.7,71 C36,70.6 36.7,69.6 36.7,68.3 C36.7,66.7 35.6,65.6 33.9,65.6 C32,65.6 30.7,67 30.7,69.1 C30.7,72.3 33.4,74.4 37.5,74.4 C42.9,74.4 47.4,70.6 47.4,65.1 C47.4,61.1 44.6,59.1 40.8,59.1 C39.5,59.1 38.4,59.3 37,59.8 L37.9,56.4 C40.2,56.9 40.3,56.9 41.7,56.9 C44.3,56.9 46.1,56.3 47.5,55.1 C48.5,54.2 49.4,52.6 49.4,51.5 C49.4,51.1 49.2,51 49,51" fill="black" transform="translate(0 0) scale(.08)" />
</g>
<path d="M718.4625000000001,428.75 L718.4625000000001,836.75" stroke-width="3.06" stroke="black" />
<g transform="translate(155.05 632.75) scale(8.5)">
<g>
<g>
<path d="M61.28382352941176,0.5 L61.28382352941176,-10.5" stroke-width="0.2" stroke="black" />
</g>
<g>
<g transform="translate(61.28382352941176 2)">
<path d="M18.7,-13.6 C4.9,-13.6 0,-6.6 0,-0.1 C0,6.4 4.9,13.4 18.7,13.4 C32.5,13.4 37.3,6.4 37.3,-0.1 C37.3,-6.6 32.5,-13.6 18.7,-13.6" fill="black" transform="translate(-1.5 0.0) scale(.08)" id="d0" />
</g>
<g transform="translate(57.78382352941176 2)">
<g id="d1"></g>
</g>
<g transform="translate(61.28382352941176 -12)">
<use xlink:href="#d0" />
</g>
<g transform="translate(57.78382352941176 -12)">
<use xlink:href="#d1" />
</g>
</g>
<g transform="translate(61.28382352941176 28) rotate(-45)">
<text x="0" y="0" font-size="3" text-anchor="end" font="Cochin">Mezzosoprano</text>
</g>
</g>
</g>
<path d="M1281.875,428.75 L1281.875,836.75" stroke-width="3.06" stroke="black" />
<g transform="translate(718.4625000000001 632.75) scale(8.5)">
<g>
<g>
<path d="M61.28382352941176,-1.5 L61.28382352941176,-12.5" stroke-width="0.2" stroke="black" />
</g>
<g>
<g transform="translate(61.28382352941176 0)">
<use xlink:href="#d0" />
</g>
<g transform="translate(57.78382352941176 0)">
<use xlink:href="#d1" />
</g>
<g transform="translate(61.28382352941176 -14)">
<use xlink:href="#d0" />
</g>
<g transform="translate(57.78382352941176 -14)">
<use xlink:href="#d1" />
</g>
</g>
<g transform="translate(61.28382352941176 28) rotate(-45)">
<text x="0" y="0" font-size="3" text-anchor="end" font="Cochin">Flute</text>
</g>
</g>
</g>
<path d="M1845.2875,428.75 L1845.2875,836.75" stroke-width="3.06" stroke="black" />
<g transform="translate(1281.875 632.75) scale(8.5)">
<g>
<g>
<path d="M61.49060838309065,11.514321695558221 L63.582377385392874,-3.5143216955582206" stroke-width="0.2" stroke="black" />
<path d="M59.226767499698404,-6.431447742273483 L60.83554084946512,-11.568552257726516" stroke-width="0.2" stroke="black" />
<path d="M61.28382352941176,-14.5 L61.28382352941176,-18.5" stroke-width="0.2" stroke="black" />
</g>
<g>
<g transform="translate(61.28382352941176 13)">
<use xlink:href="#d0" />
</g>
<g transform="translate(57.78382352941176 13)">
<use xlink:href="#d1" />
</g>
<g transform="translate(63.789162239071764 -5)">
<use xlink:href="#d0" />
</g>
<g transform="translate(60.289162239071764 -5)">
<path d="M12,-15.5 C7,-15.5 4.1,-12.4 3.6,-11.8 L4,-43.9 C4,-44.7 3.4,-45.3 2.6,-45.3 L1.4,-45.3 C0.6,-45.3 0,-44.7 0,-43.9 L0.5,16.2 C0.5,17 1.1,17.6 1.9,17.6 C2.1,17.6 2.5,17.5 2.7,17.4 C11.3,13.1 20.3,4.9 20.3,-5.4 C20.3,-10.6 17.9,-15.5 12,-15.5 M3.3,12.7 L3.6,-6.8 C3.8,-7.7 5.3,-10.6 9.3,-10.6 C12.9,-10.6 13.2,-7.2 13.2,-5.1 C13.2,3.8 9.9,7.5 3.3,12.7" fill="black" transform="translate(0 0) scale(.08)" id="d2" />
</g>
<g transform="translate(58.77848481975176 -5)">
<use xlink:href="#d0" />
</g>
<g transform="translate(55.27848481975176 -5)">
<use xlink:href="#d1" />
</g>
<g transform="translate(61.28382352941176 -13)">
<use xlink:href="#d0" />
</g>
<g transform="translate(57.78382352941176 -13)">
<use xlink:href="#d2" />
</g>
<g transform="translate(61.28382352941176 -20)">
<path d="M18.7,-13.6 C4.9,-13.6 0,-6.6 0,-0.1 C0,6.4 4.9,13.4 18.7,13.4 C32.5,13.4 37.3,6.4 37.3,-0.1 C37.3,-6.6 32.5,-13.6 18.7,-13.6 M19.5,10.2 C16.7,10.2 14.8,9.4 13.5,6.9 C12.2,4.4 10.4,-2.1 10.3,-4.7 C10.1,-7.4 11.1,-9 13.5,-9.8 C14.7,-10.2 16.3,-10.4 17.9,-10.4 C20.6,-10.4 22.4,-9.8 23.8,-7.1 C25.2,-4.5 27.1,2 27.1,4.5 C27.1,9.4 23.5,10.2 19.5,10.2" fill="black" transform="translate(-1.5 0.0) scale(.08)" id="d3" />
</g>
<g transform="translate(57.78382352941176 -20)">
<use xlink:href="#d2" />
</g>
</g>
<g transform="translate(61.28382352941176 28) rotate(-45)">
<text x="0" y="0" font-size="3" text-anchor="end" font="Cochin">Clarinet</text>
</g>
</g>
</g>
<path d="M2408.7000000000003,428.75 L2408.7000000000003,836.75" stroke-width="3.06" stroke="black" />
<g transform="translate(1845.2875000000001 632.75) scale(8.5)">
<g>
<g>
<path d="M61.62278647323245,2.538800450754104 L62.33671542429107,-0.538800450754104" stroke-width="0.2" stroke="black" />
<path d="M60.52326163678919,-4.360687038312959 L62.04438542203434,-7.639312961687041" stroke-width="0.2" stroke="black" />
</g>
<g>
<g transform="translate(61.28382352941176 6)">
<use xlink:href="#d3" />
</g>
<g transform="translate(57.78382352941176 6)">
<use xlink:href="#d2" />
</g>
<g transform="translate(61.28382352941176 4)">
<use xlink:href="#d0" />
</g>
<g transform="translate(57.78382352941176 4)">
<use xlink:href="#d1" />
</g>
<g transform="translate(62.67567836811176 -2)">
<use xlink:href="#d0" />
</g>
<g transform="translate(59.17567836811176 -2)">
<use xlink:href="#d1" />
</g>
<g transform="translate(59.891968690711764 -3)">
<use xlink:href="#d0" />
</g>
<g transform="translate(56.391968690711764 -3)">
<use xlink:href="#d1" />
</g>
<g transform="translate(62.67567836811176 -9)">
<use xlink:href="#d0" />
</g>
<g transform="translate(59.17567836811176 -9)">
<use xlink:href="#d1" />
</g>
<g transform="translate(59.891968690711764 -10)">
<use xlink:href="#d0" />
</g>
<g transform="translate(56.391968690711764 -10)">
<use xlink:href="#d1" />
</g>
<g transform="translate(61.28382352941176 -12)">
<use xlink:href="#d3" />
</g>
<g transform="translate(57.78382352941176 -12)">
<use xlink:href="#d2" />
</g>
</g>
<g transform="translate(61.28382352941176 28) rotate(-45)">
<text x="0" y="0" font-size="3" text-anchor="end" font="Cochin">Alto Saxophone</text>
</g>
</g>
</g>
<path d="M2972.1125,428.75 L2972.1125,836.75" stroke-width="3.06" stroke="black" />
<g transform="translate(2408.7000000000003 632.75) scale(8.5)">
<g>
<g>
<path d="M61.62278647323245,5.538800450754104 L62.33671542429107,2.461199549245896" stroke-width="0.2" stroke="black" />
<path d="M60.52326163678919,-1.3606870383129586 L62.04438542203434,-4.639312961687041" stroke-width="0.2" stroke="black" />
</g>
<g>
<g transform="translate(61.28382352941176 9)">
<use xlink:href="#d3" />
</g>
<g transform="translate(57.78382352941176 9)">
<use xlink:href="#d2" />
</g>
<g transform="translate(61.28382352941176 7)">
<use xlink:href="#d0" />
</g>
<g transform="translate(57.78382352941176 7)">
<use xlink:href="#d1" />
</g>
<g transform="translate(62.67567836811176 1)">
<use xlink:href="#d0" />
</g>
<g transform="translate(59.17567836811176 1)">
<use xlink:href="#d1" />
</g>
<g transform="translate(59.891968690711764 0)">
<use xlink:href="#d0" />
</g>
<g transform="translate(56.391968690711764 0)">
<use xlink:href="#d1" />
</g>
<g transform="translate(62.67567836811176 -6)">
<use xlink:href="#d0" />
</g>
<g transform="translate(59.17567836811176 -6)">
<use xlink:href="#d1" />
</g>
<g transform="translate(59.891968690711764 -7)">
<use xlink:href="#d0" />
</g>
<g transform="translate(56.391968690711764 -7)">
<use xlink:href="#d1" />
</g>
<g transform="translate(61.28382352941176 -9)">
<use xlink:href="#d3" />
</g>
<g transform="translate(57.78382352941176 -9)">
<use xlink:href="#d2" />
</g>
</g>
<g transform="translate(61.28382352941176 28) rotate(-45)">
<text x="0" y="0" font-size="3" text-anchor="end" font="Cochin">Tenor Saxophone</text>
</g>
</g>
</g>
<path d="M3535.525,428.75 L3535.525,836.75" stroke-width="3.06" stroke="black" />
<g transform="translate(2972.1125 632.75) scale(8.5)">
<g>
<g>
<path d="M61.62278647323245,9.538800450754104 L62.33671542429107,6.461199549245896" stroke-width="0.2" stroke="black" />
<path d="M60.52326163678919,2.6393129616870414 L62.04438542203434,-0.6393129616870414" stroke-width="0.2" stroke="black" />
</g>
<g>
<g transform="translate(61.28382352941176 13)">
<use xlink:href="#d3" />
</g>
<g transform="translate(57.78382352941176 13)">
<use xlink:href="#d2" />
</g>
<g transform="translate(61.28382352941176 11)">
<use xlink:href="#d0" />
</g>
<g transform="translate(57.78382352941176 11)">
<use xlink:href="#d1" />
</g>
<g transform="translate(62.67567836811176 5)">
<use xlink:href="#d0" />
</g>
<g transform="translate(59.17567836811176 5)">
<use xlink:href="#d1" />
</g>
<g transform="translate(59.891968690711764 4)">
<use xlink:href="#d0" />
</g>
<g transform="translate(56.391968690711764 4)">
<use xlink:href="#d1" />
</g>
<g transform="translate(62.67567836811176 -2)">
<use xlink:href="#d0" />
</g>
<g transform="translate(59.17567836811176 -2)">
<use xlink:href="#d1" />
</g>
<g transform="translate(59.891968690711764 -3)">
<use xlink:href="#d0" />
</g>
<g transform="translate(56.391968690711764 -3)">
<use xlink:href="#d1" />
</g>
<g transform="translate(61.28382352941176 -5)">
<use xlink:href="#d3" />
</g>
<g transform="translate(57.78382352941176 -5)">
<use xlink:href="#d2" />
</g>
</g>
<g transform="translate(61.28382352941176 28) rotate(-45)">
<text x="0" y="0" font-size="3" text-anchor="end" font="Cochin">Baritone Saxophone</text>
</g>
</g>
</g>
<path d="M4098.937500000001,428.75 L4098.937500000001,836.75" stroke-width="3.06" stroke="black" />
<g transform="translate(3535.5250000000005 632.75) scale(8.5)">
<g>
<g>
<path d="M61.28382352941176,3.5 L61.28382352941176,2.5" stroke-width="0.2" stroke="black" />
<path d="M61.28382352941176,-0.5 L61.28382352941176,-9.5" stroke-width="0.2" stroke="black" />
</g>
<g>
<g transform="translate(61.28382352941176 5)">
<use xlink:href="#d3" />
</g>
<g transform="translate(57.78382352941176 5)">
<use xlink:href="#d1" />
</g>
<g transform="translate(61.28382352941176 1)">
<use xlink:href="#d0" />
</g>
<g transform="translate(57.78382352941176 1)">
<use xlink:href="#d2" />
</g>
<g transform="translate(61.28382352941176 -11)">
<use xlink:href="#d0" />
</g>
<g transform="translate(57.78382352941176 -11)">
<use xlink:href="#d1" />
</g>
<g transform="translate(61.28382352941176 -14)">
<use xlink:href="#d0" />
</g>
<g transform="translate(57.78382352941176 -14)">
<use xlink:href="#d1" />
</g>
<g transform="translate(61.28382352941176 -17)">
<use xlink:href="#d3" />
</g>
<g transform="translate(57.78382352941176 -17)">
<use xlink:href="#d1" />
</g>
</g>
<g transform="translate(61.28382352941176 28) rotate(-45)">
<text x="0" y="0" font-size="3" text-anchor="end" font="Cochin">Trumpet</text>
</g>
</g>
</g>
<path d="M4662.35,428.75 L4662.35,836.75" stroke-width="3.06" stroke="black" />
<g transform="translate(4098.9375 632.75) scale(8.5)">
<g>
<g>
<path d="M61.28382352941176,8.5 L61.28382352941176,-2.5" stroke-width="0.2" stroke="black" />
</g>
<g>
<g transform="translate(61.28382352941176 12)">
<use xlink:href="#d0" />
</g>
<g transform="translate(57.78382352941176 12)">
<use xlink:href="#d1" />
</g>
<g transform="translate(61.28382352941176 10)">
<use xlink:href="#d0" />
</g>
<g transform="translate(57.78382352941176 10)">
<use xlink:href="#d1" />
</g>
<g transform="translate(61.28382352941176 -4)">
<use xlink:href="#d0" />
</g>
<g transform="translate(57.78382352941176 -4)">
<use xlink:href="#d1" />
</g>
<g transform="translate(61.28382352941176 -7)">
<use xlink:href="#d3" />
</g>
<g transform="translate(57.78382352941176 -7)">
<use xlink:href="#d1" />
</g>
</g>
<g transform="translate(61.28382352941176 28) rotate(-45)">
<text x="0" y="0" font-size="3" text-anchor="end" font="Cochin">Trombone</text>
</g>
</g>
</g>
<path d="M5225.762500000001,428.75 L5225.762500000001,836.75" stroke-width="3.06" stroke="black" />
<g transform="translate(4662.35 632.75) scale(8.5)">
<g>
<g>
<path d="M61.28382352941176,23.5 L61.28382352941176,16.5" stroke-width="0.2" stroke="black" />
<path d="M59.08504225295058,10.53165993715674 L60.977266096212944,1.4683400628432612" stroke-width="0.2" stroke="black" />
<path d="M61.28382352941176,-1.5 L61.28382352941176,-2.5" stroke-width="0.2" stroke="black" />
</g>
<g>
<g transform="translate(61.28382352941176 25)">
<use xlink:href="#d3" />
</g>
<g transform="translate(57.78382352941176 25)">
<use xlink:href="#d1" />
</g>
<g transform="translate(61.28382352941176 15)">
<use xlink:href="#d0" />
</g>
<g transform="translate(57.78382352941176 15)">
<use xlink:href="#d2" />
</g>
<g transform="translate(63.789162239071764 12)">
<use xlink:href="#d0" />
</g>
<g transform="translate(60.289162239071764 12)">
<use xlink:href="#d2" />
</g>
<g transform="translate(58.77848481975176 12)">
<use xlink:href="#d0" />
</g>
<g transform="translate(55.27848481975176 12)">
<use xlink:href="#d1" />
</g>
<g transform="translate(61.28382352941176 0)">
<use xlink:href="#d0" />
</g>
<g transform="translate(57.78382352941176 0)">
<use xlink:href="#d1" />
</g>
<g transform="translate(61.28382352941176 -4)">
<use xlink:href="#d3" />
</g>
<g transform="translate(57.78382352941176 -4)">
<use xlink:href="#d1" />
</g>
</g>
<g transform="translate(61.28382352941176 28) rotate(-45)">
<text x="0" y="0" font-size="3" text-anchor="end" font="Cochin">Basstrombone</text>
</g>
</g>
</g>
<path d="M5789.175000000001,428.75 L5789.175000000001,836.75" stroke-width="3.06" stroke="black" />
<g transform="translate(5225.762500000001 632.75) scale(8.5)">
<g>
<g>
<path d="M61.28382352941176,21.5 L61.28382352941176,-26.5" stroke-width="0.2" stroke="black" />
</g>
<g>
<g transform="translate(61.28382352941176 23)">
<use xlink:href="#d0" />
</g>
<g transform="translate(57.78382352941176 23)">
<use xlink:href="#d1" />
</g>
<g transform="translate(61.28382352941176 -28)">
<use xlink:href="#d0" />
</g>
<g transform="translate(57.78382352941176 -28)">
<use xlink:href="#d1" />
</g>
</g>
<g transform="translate(61.28382352941176 28) rotate(-45)">
<text x="0" y="0" font-size="3" text-anchor="end" font="Cochin">Piano</text>
</g>
</g>
</g>
<path d="M6352.587500000001,428.75 L6352.587500000001,836.75" stroke-width="3.06" stroke="black" />
<g transform="translate(5789.175 632.75) scale(8.5)">
<g>
<g>
<path d="M61.28382352941176,10.5 L61.28382352941176,-5.5" stroke-width="0.2" stroke="black" />
</g>
<g>
<g transform="translate(61.28382352941176 12)">
<use xlink:href="#d0" />
</g>
<g transform="translate(57.78382352941176 12)">
<use xlink:href="#d1" />
</g>
<g transform="translate(61.28382352941176 -7)">
<use xlink:href="#d0" />
</g>
<g transform="translate(57.78382352941176 -7)">
<use xlink:href="#d1" />
</g>
</g>
<g transform="translate(61.28382352941176 28) rotate(-45)">
<text x="0" y="0" font-size="3" text-anchor="end" font="Cochin">Guitar</text>
</g>
</g>
</g>
<path d="M6905.290000000001,428.75 L6905.290000000001,836.75" stroke-width="3.06" stroke="black" />
<path d="M6916.000000000001,427.815 L6916.000000000001,837.685" stroke-width="9.18" stroke="black" />
<g transform="translate(6352.587500000001 632.75) scale(8.5)">
<g>
<g>
<path d="M61.28382352941176,17.5 L61.28382352941176,6.5" stroke-width="0.2" stroke="black" />
<path d="M61.28382352941176,3.5 L61.28382352941176,1.5" stroke-width="0.2" stroke="black" />
</g>
<g>
<g transform="translate(61.28382352941176 19)">
<use xlink:href="#d0" />
</g>
<g transform="translate(57.78382352941176 19)">
<use xlink:href="#d1" />
</g>
<g transform="translate(61.28382352941176 5)">
<use xlink:href="#d0" />
</g>
<g transform="translate(57.78382352941176 5)">
<use xlink:href="#d1" />
</g>
<g transform="translate(61.28382352941176 0)">
<use xlink:href="#d0" />
</g>
<g transform="translate(57.78382352941176 0)">
<use xlink:href="#d1" />
</g>
</g>
<g transform="translate(61.28382352941176 28) rotate(-45)">
<text x="0" y="0" font-size="3" text-anchor="end" font="Cochin">Bass</text>
</g>
</g>
</g>
</svg>